<svg xmlns="http://www.w3.org/2000/svg" width="920" height="340" viewBox="0 0 920 340">
<rect width="100%" height="100%" fill="#f8fafc"/>
<text x="32" y="38" font-family="Arial, sans-serif" font-size="24" font-weight="700" fill="#0f172a">E2B Evidence-Router Gate Metrics</text>
<text x="32" y="94" font-family="Arial, sans-serif" font-size="15" fill="#334155">Tool name accuracy</text>
<rect x="270" y="77" width="560" height="24" rx="4" fill="#e2e8f0"/>
<rect x="270" y="77" width="560" height="24" rx="4" fill="#2563eb"/>
<text x="846" y="95" font-family="Arial, sans-serif" font-size="15" font-weight="700" fill="#0f172a">100.0%</text>
<text x="32" y="140" font-family="Arial, sans-serif" font-size="15" fill="#334155">Args schema valid</text>
<rect x="270" y="123" width="560" height="24" rx="4" fill="#e2e8f0"/>
<rect x="270" y="123" width="560" height="24" rx="4" fill="#2563eb"/>
<text x="846" y="141" font-family="Arial, sans-serif" font-size="15" font-weight="700" fill="#0f172a">100.0%</text>
<text x="32" y="186" font-family="Arial, sans-serif" font-size="15" fill="#334155">Evidence refs valid</text>
<rect x="270" y="169" width="560" height="24" rx="4" fill="#e2e8f0"/>
<rect x="270" y="169" width="560" height="24" rx="4" fill="#2563eb"/>
<text x="846" y="187" font-family="Arial, sans-serif" font-size="15" font-weight="700" fill="#0f172a">100.0%</text>
<text x="32" y="232" font-family="Arial, sans-serif" font-size="15" fill="#334155">Unsupported refusal</text>
<rect x="270" y="215" width="560" height="24" rx="4" fill="#e2e8f0"/>
<rect x="270" y="215" width="560" height="24" rx="4" fill="#2563eb"/>
<text x="846" y="233" font-family="Arial, sans-serif" font-size="15" font-weight="700" fill="#0f172a">100.0%</text>
<text x="32" y="278" font-family="Arial, sans-serif" font-size="15" fill="#334155">No forbidden claims</text>
<rect x="270" y="261" width="560" height="24" rx="4" fill="#e2e8f0"/>
<rect x="270" y="261" width="560" height="24" rx="4" fill="#2563eb"/>
<text x="846" y="279" font-family="Arial, sans-serif" font-size="15" font-weight="700" fill="#0f172a">100.0%</text>
</svg>