<svg xmlns="http://www.w3.org/2000/svg" width="960" height="320" viewBox="0 0 960 320">
<rect width="100%" height="100%" fill="#f8fafc"/>
<text x="32" y="44" font-family="Arial, sans-serif" font-size="26" font-weight="700" fill="#0f172a">Safe Multimodal Sidecar</text>
<text x="32" y="72" font-family="Arial, sans-serif" font-size="15" font-weight="400" fill="#475569">Vision is an optional explanation path. It never changes deterministic safety verdicts.</text>
<rect x="32" y="238" width="896" height="48" rx="8" fill="#fee2e2" stroke="#ef4444" stroke-width="1"/>
<text x="52" y="268" font-family="Arial, sans-serif" font-size="17" font-weight="700" fill="#991b1b">LIVE_FRAME path remains MediaPipe / Layer 2 / Trust Matrix / Evidence Card</text>
<rect x="32" y="128" width="132" height="58" rx="8" fill="#64748b" opacity="0.95"/>
<text x="46" y="163" font-family="Arial, sans-serif" font-size="13" font-weight="700" fill="#ffffff">Raw video</text>
<line x1="172" y1="157" x2="172" y2="157" stroke="#334155" stroke-width="3"/>
<polygon points="180,157 168,149 168,165" fill="#334155"/>
<rect x="184" y="128" width="132" height="58" rx="8" fill="#0f766e" opacity="0.95"/>
<text x="198" y="153" font-family="Arial, sans-serif" font-size="13" font-weight="700" fill="#ffffff">FrameEvidence</text>
<text x="198" y="171" font-family="Arial, sans-serif" font-size="13" font-weight="700" fill="#ffffff">Selector</text>
<line x1="324" y1="157" x2="324" y2="157" stroke="#334155" stroke-width="3"/>
<polygon points="332,157 320,149 320,165" fill="#334155"/>
<rect x="336" y="128" width="132" height="58" rx="8" fill="#16a34a" opacity="0.95"/>
<text x="350" y="153" font-family="Arial, sans-serif" font-size="13" font-weight="700" fill="#ffffff">Evidence</text>
<text x="350" y="171" font-family="Arial, sans-serif" font-size="13" font-weight="700" fill="#ffffff">Panel</text>
<line x1="476" y1="157" x2="476" y2="157" stroke="#334155" stroke-width="3"/>
<polygon points="484,157 472,149 472,165" fill="#334155"/>
<rect x="488" y="128" width="132" height="58" rx="8" fill="#2563eb" opacity="0.95"/>
<text x="502" y="153" font-family="Arial, sans-serif" font-size="13" font-weight="700" fill="#ffffff">MotionZip</text>
<text x="502" y="171" font-family="Arial, sans-serif" font-size="13" font-weight="700" fill="#ffffff">JSON</text>
<line x1="628" y1="157" x2="628" y2="157" stroke="#334155" stroke-width="3"/>
<polygon points="636,157 624,149 624,165" fill="#334155"/>
<rect x="640" y="128" width="132" height="58" rx="8" fill="#7c3aed" opacity="0.95"/>
<text x="654" y="153" font-family="Arial, sans-serif" font-size="13" font-weight="700" fill="#ffffff">Gemma</text>
<text x="654" y="171" font-family="Arial, sans-serif" font-size="13" font-weight="700" fill="#ffffff">sidecar</text>
<line x1="780" y1="157" x2="780" y2="157" stroke="#334155" stroke-width="3"/>
<polygon points="788,157 776,149 776,165" fill="#334155"/>
<rect x="792" y="128" width="132" height="58" rx="8" fill="#dc2626" opacity="0.95"/>
<text x="806" y="163" font-family="Arial, sans-serif" font-size="13" font-weight="700" fill="#ffffff">Validator</text>
<text x="32" y="214" font-family="Arial, sans-serif" font-size="15" font-weight="400" fill="#334155">Allowed triggers: USER_QUESTION, SESSION_ENDED, CAREGIVER_EXPORT, optional WARNING_PERSISTED</text>
</svg>
