<svg xmlns="http://www.w3.org/2000/svg" width="1220" height="594" viewBox="0 0 1220 594">
<rect width="1220" height="100%" fill="#ffffff"/>
<text x="40" y="54" font-size="28" font-weight="800" fill="#0f172a">Key-fact equivalence matrix</text>
<text x="40" y="84" font-size="15" fill="#475569">Pass means MotionZip would let the model recover the same key understanding as dense frame evidence.</text>
<rect x="40" y="110" width="1140" height="42" fill="#f1f5f9"/>
<text x="60" y="137" font-size="14" font-weight="700" fill="#0f172a">Key</text>
<text x="310" y="137" font-size="14" font-weight="700" fill="#0f172a">Dense frame-by-frame</text>
<text x="670" y="137" font-size="14" font-weight="700" fill="#0f172a">MotionZip compressed</text>
<text x="1045" y="137" font-size="14" font-weight="700" fill="#0f172a">Result</text>
<rect x="40" y="152" width="1140" height="58" fill="#ffffff" stroke="#e2e8f0"/>
<text x="60" y="186" font-size="14" fill="#0f172a">activity</text>
<text x="310" y="186" font-size="13" fill="#334155">lunge_like_unilateral_motion</text>
<text x="670" y="186" font-size="13" fill="#334155">lunge_like_unilateral_motion</text>
<rect x="1035" y="166" width="90" height="28" rx="5" fill="#dcfce7"/>
<text x="1055" y="186" font-size="13" font-weight="700" fill="#0f172a">PASS</text>
<rect x="40" y="210" width="1140" height="58" fill="#f8fafc" stroke="#e2e8f0"/>
<text x="60" y="244" font-size="14" fill="#0f172a">states</text>
<text x="310" y="244" font-size="13" fill="#334155">[&#x27;abstain&#x27;, &#x27;monitor_only&#x27;]</text>
<text x="670" y="244" font-size="13" fill="#334155">[&#x27;abstain&#x27;, &#x27;monitor_only&#x27;]</text>
<rect x="1035" y="224" width="90" height="28" rx="5" fill="#dcfce7"/>
<text x="1055" y="244" font-size="13" font-weight="700" fill="#0f172a">PASS</text>
<rect x="40" y="268" width="1140" height="58" fill="#ffffff" stroke="#e2e8f0"/>
<text x="60" y="302" font-size="14" fill="#0f172a">event_count</text>
<text x="310" y="302" font-size="13" fill="#334155">2</text>
<text x="670" y="302" font-size="13" fill="#334155">2</text>
<rect x="1035" y="282" width="90" height="28" rx="5" fill="#dcfce7"/>
<text x="1055" y="302" font-size="13" font-weight="700" fill="#0f172a">PASS</text>
<rect x="40" y="326" width="1140" height="58" fill="#f8fafc" stroke="#e2e8f0"/>
<text x="60" y="360" font-size="14" fill="#0f172a">event_frames</text>
<text x="310" y="360" font-size="13" fill="#334155">[258, 1440]</text>
<text x="670" y="360" font-size="13" fill="#334155">[258, 1434]</text>
<rect x="1035" y="340" width="90" height="28" rx="5" fill="#dcfce7"/>
<text x="1055" y="360" font-size="13" font-weight="700" fill="#0f172a">PASS</text>
<rect x="40" y="384" width="1140" height="58" fill="#ffffff" stroke="#e2e8f0"/>
<text x="60" y="418" font-size="14" fill="#0f172a">velocity_band</text>
<text x="310" y="418" font-size="13" fill="#334155">high</text>
<text x="670" y="418" font-size="13" fill="#334155">high</text>
<rect x="1035" y="398" width="90" height="28" rx="5" fill="#dcfce7"/>
<text x="1055" y="418" font-size="13" font-weight="700" fill="#0f172a">PASS</text>
<rect x="40" y="442" width="1140" height="58" fill="#f8fafc" stroke="#e2e8f0"/>
<text x="60" y="476" font-size="14" fill="#0f172a">velocity_peak</text>
<text x="310" y="476" font-size="13" fill="#334155">857.147</text>
<text x="670" y="476" font-size="13" fill="#334155">840.93</text>
<rect x="1035" y="456" width="90" height="28" rx="5" fill="#dcfce7"/>
<text x="1055" y="476" font-size="13" font-weight="700" fill="#0f172a">PASS</text>
<rect x="40" y="500" width="1140" height="58" fill="#ffffff" stroke="#e2e8f0"/>
<text x="60" y="534" font-size="14" fill="#0f172a">confidence_floor</text>
<text x="310" y="534" font-size="13" fill="#334155">0.5145</text>
<text x="670" y="534" font-size="13" fill="#334155">0.5145</text>
<rect x="1035" y="514" width="90" height="28" rx="5" fill="#dcfce7"/>
<text x="1055" y="534" font-size="13" font-weight="700" fill="#0f172a">PASS</text>
<rect x="40" y="558" width="1140" height="58" fill="#f8fafc" stroke="#e2e8f0"/>
<text x="60" y="592" font-size="14" fill="#0f172a">low_confidence_reason</text>
<text x="310" y="592" font-size="13" fill="#334155">low_keypoint_visibility</text>
<text x="670" y="592" font-size="13" fill="#334155">low_keypoint_visibility</text>
<rect x="1035" y="572" width="90" height="28" rx="5" fill="#dcfce7"/>
<text x="1055" y="592" font-size="13" font-weight="700" fill="#0f172a">PASS</text>
</svg>