<svg xmlns="http://www.w3.org/2000/svg" width="980" height="330" viewBox="0 0 980 330">
<rect width="100%" height="100%" fill="#f8fafc"/>
<text x="30" y="38" font-family="Arial, sans-serif" font-size="24" font-weight="700" fill="#0f172a">Sparse Tracking Understanding Score</text>
<text x="30" y="94" font-family="Arial, sans-serif" font-size="15" fill="#334155">track every 1 pose sample(s)</text>
<rect x="290" y="77" width="560" height="24" rx="4" fill="#e2e8f0"/>
<rect x="290" y="77" width="560" height="24" rx="4" fill="#2563eb"/>
<text x="866" y="95" font-family="Arial, sans-serif" font-size="15" font-weight="700" fill="#0f172a">100.0%</text>
<text x="30" y="138" font-family="Arial, sans-serif" font-size="15" fill="#334155">track every 2 pose sample(s)</text>
<rect x="290" y="121" width="560" height="24" rx="4" fill="#e2e8f0"/>
<rect x="290" y="121" width="558" height="24" rx="4" fill="#2563eb"/>
<text x="866" y="139" font-family="Arial, sans-serif" font-size="15" font-weight="700" fill="#0f172a">99.7%</text>
<text x="30" y="182" font-family="Arial, sans-serif" font-size="15" fill="#334155">track every 4 pose sample(s)</text>
<rect x="290" y="165" width="560" height="24" rx="4" fill="#e2e8f0"/>
<rect x="290" y="165" width="385" height="24" rx="4" fill="#0f766e"/>
<text x="866" y="183" font-family="Arial, sans-serif" font-size="15" font-weight="700" fill="#0f172a">68.8%</text>
<text x="30" y="226" font-family="Arial, sans-serif" font-size="15" fill="#334155">track every 8 pose sample(s)</text>
<rect x="290" y="209" width="560" height="24" rx="4" fill="#e2e8f0"/>
<rect x="290" y="209" width="0" height="24" rx="4" fill="#b45309"/>
<text x="866" y="227" font-family="Arial, sans-serif" font-size="15" font-weight="700" fill="#0f172a">0.0%</text>
<text x="30" y="270" font-family="Arial, sans-serif" font-size="15" fill="#334155">track every 16 pose sample(s)</text>
<rect x="290" y="253" width="560" height="24" rx="4" fill="#e2e8f0"/>
<rect x="290" y="253" width="0" height="24" rx="4" fill="#b45309"/>
<text x="866" y="271" font-family="Arial, sans-serif" font-size="15" font-weight="700" fill="#0f172a">0.0%</text>
</svg>